<svg width="24" height="24" viewBox="0 0 24 24" fill="none" xmlns="http://www.w3.org/2000/svg">
<path d="M15.9372 9.89273L16.7699 9.06009L14.9393 7.22949L14.1066 8.06213C13.7514 8.41735 13.3183 8.68511 12.8421 8.84385L10.3179 9.68547C9.7458 9.87596 9.22645 10.197 8.79995 10.6235L6.47397 12.9495C5.84201 13.5815 5.84201 14.6058 6.47397 15.2378L8.76221 17.526C9.39418 18.158 10.4185 18.158 11.0505 17.526L13.377 15.1994C13.8035 14.7729 14.1246 14.2536 14.3151 13.6815L15.1567 11.1573C15.3143 10.681 15.582 10.2479 15.9372 9.89273Z" stroke="currentColor"/>
<path d="M12.4018 15.4657L11.2783 16.5892L7.40871 12.7193L8.53221 11.5958L12.4018 15.4657Z" stroke="currentColor"/>
<path d="M16.7875 9.07779L14.9226 7.21284C14.8058 7.09602 14.8058 6.90611 14.9226 6.78929L15.4486 6.2633C15.7996 5.91223 16.3688 5.91223 16.7192 6.2633L17.7365 7.28054C18.0875 7.6316 18.0875 8.20073 17.7365 8.55119L17.2105 9.07719C17.0936 9.19461 16.9043 9.19461 16.7875 9.07779Z" stroke="currentColor"/>
</svg>
