<svg width="12" height="12" viewBox="0 0 12 12" fill="none" xmlns="http://www.w3.org/2000/svg">
<g clip-path="url(#clip0_1484_33130)">
<path d="M1.92461 4.30956C1.85163 3.98082 1.86283 3.63898 1.95719 3.31573C2.05154 2.99248 2.22598 2.69828 2.46434 2.46042C2.7027 2.22256 2.99726 2.04873 3.32071 1.95506C3.64416 1.86138 3.98602 1.85089 4.31461 1.92456C4.49546 1.64171 4.74461 1.40894 5.03908 1.2477C5.33356 1.08647 5.66388 1.00195 5.99961 1.00195C6.33533 1.00195 6.66566 1.08647 6.96013 1.2477C7.25461 1.40894 7.50375 1.64171 7.68461 1.92456C8.01369 1.85057 8.35614 1.86102 8.68011 1.95492C9.00407 2.04882 9.29902 2.22313 9.53753 2.46164C9.77604 2.70014 9.95035 2.9951 10.0443 3.31906C10.1382 3.64303 10.1486 3.98548 10.0746 4.31456C10.3575 4.49541 10.5902 4.74456 10.7515 5.03904C10.9127 5.33351 10.9972 5.66383 10.9972 5.99956C10.9972 6.33529 10.9127 6.66561 10.7515 6.96008C10.5902 7.25456 10.3575 7.50371 10.0746 7.68456C10.1483 8.01314 10.1378 8.35501 10.0441 8.67846C9.95044 9.00191 9.77661 9.29647 9.53875 9.53483C9.30089 9.77319 9.00669 9.94763 8.68344 10.042C8.36019 10.1363 8.01834 10.1475 7.68961 10.0746C7.50899 10.3585 7.25965 10.5923 6.96467 10.7542C6.66969 10.9162 6.33862 11.0011 6.00211 11.0011C5.66559 11.0011 5.33452 10.9162 5.03955 10.7542C4.74457 10.5923 4.49523 10.3585 4.31461 10.0746C3.98602 10.1482 3.64416 10.1377 3.32071 10.0441C2.99726 9.95039 2.7027 9.77656 2.46434 9.5387C2.22598 9.30084 2.05154 9.00664 1.95719 8.68339C1.86283 8.36014 1.85163 8.0183 1.92461 7.68956C1.63959 7.50918 1.40482 7.25965 1.24213 6.96417C1.07945 6.66869 0.994141 6.33686 0.994141 5.99956C0.994141 5.66226 1.07945 5.33043 1.24213 5.03495C1.40482 4.73947 1.63959 4.48994 1.92461 4.30956Z" stroke="#404251" stroke-linecap="round" stroke-linejoin="round"/>
<path d="M6 4V6" stroke="#404251" stroke-linecap="round" stroke-linejoin="round"/>
<path d="M6 8H6.005" stroke="#404251" stroke-linecap="round" stroke-linejoin="round"/>
</g>
<defs>
<clipPath id="clip0_1484_33130">
<rect width="12" height="12" fill="white"/>
</clipPath>
</defs>
</svg>
