<svg width="12" height="12" viewBox="0 0 12 12" fill="none" xmlns="http://www.w3.org/2000/svg">
<g clip-path="url(#clip0_1711_22755)">
<path d="M1.92461 4.31151C1.85163 3.98278 1.86283 3.64093 1.95719 3.31768C2.05154 2.99443 2.22598 2.70024 2.46434 2.46237C2.7027 2.22451 2.99726 2.05069 3.32071 1.95701C3.64416 1.86334 3.98602 1.85285 4.31461 1.92651C4.49546 1.64366 4.74461 1.41089 5.03908 1.24966C5.33356 1.08842 5.66388 1.00391 5.99961 1.00391C6.33533 1.00391 6.66566 1.08842 6.96013 1.24966C7.25461 1.41089 7.50375 1.64366 7.68461 1.92651C8.01369 1.85253 8.35614 1.86297 8.68011 1.95687C9.00407 2.05077 9.29902 2.22508 9.53753 2.46359C9.77604 2.7021 9.95035 2.99705 10.0443 3.32101C10.1382 3.64498 10.1486 3.98743 10.0746 4.31651C10.3575 4.49737 10.5902 4.74652 10.7515 5.04099C10.9127 5.33546 10.9972 5.66579 10.9972 6.00151C10.9972 6.33724 10.9127 6.66756 10.7515 6.96204C10.5902 7.25651 10.3575 7.50566 10.0746 7.68651C10.1483 8.0151 10.1378 8.35696 10.0441 8.68041C9.95044 9.00386 9.77661 9.29842 9.53875 9.53678C9.30089 9.77514 9.00669 9.94958 8.68344 10.0439C8.36019 10.1383 8.01834 10.1495 7.68961 10.0765C7.50899 10.3604 7.25965 10.5942 6.96467 10.7562C6.66969 10.9181 6.33862 11.003 6.00211 11.003C5.66559 11.003 5.33452 10.9181 5.03955 10.7562C4.74457 10.5942 4.49523 10.3604 4.31461 10.0765C3.98602 10.1502 3.64416 10.1397 3.32071 10.046C2.99726 9.95234 2.7027 9.77851 2.46434 9.54065C2.22598 9.30279 2.05154 9.0086 1.95719 8.68534C1.86283 8.36209 1.85163 8.02025 1.92461 7.69151C1.63959 7.51113 1.40482 7.2616 1.24213 6.96612C1.07945 6.67064 0.994141 6.33882 0.994141 6.00151C0.994141 5.66421 1.07945 5.33239 1.24213 5.03691C1.40482 4.74143 1.63959 4.49189 1.92461 4.31151Z" stroke="#FFCD2A" stroke-linecap="round" stroke-linejoin="round"/>
<path d="M6 4V6" stroke="#FFCD2A" stroke-linecap="round" stroke-linejoin="round"/>
<path d="M6 8H6.005" stroke="#FFCD2A" stroke-linecap="round" stroke-linejoin="round"/>
</g>
<defs>
<clipPath id="clip0_1711_22755">
<rect width="12" height="12" fill="white"/>
</clipPath>
</defs>
</svg>
