<svg width="25" height="25" viewBox="0 0 25 25" fill="none" xmlns="http://www.w3.org/2000/svg">
<g clip-path="url(#clip0_1700_58926)">
<g clip-path="url(#clip1_1700_58926)">
<path d="M2.73244 8.29666C2.55734 7.50793 2.58422 6.68776 2.8106 5.9122C3.03698 5.13663 3.45551 4.43078 4.0274 3.86009C4.59929 3.28939 5.30602 2.87234 6.08205 2.64759C6.85809 2.42284 7.67832 2.39767 8.46667 2.57442C8.90059 1.89579 9.49836 1.33731 10.2049 0.950459C10.9114 0.56361 11.7039 0.36084 12.5094 0.36084C13.3149 0.36084 14.1075 0.56361 14.814 0.950459C15.5205 1.33731 16.1183 1.89579 16.5522 2.57442C17.3417 2.3969 18.1634 2.42195 18.9407 2.64725C19.7179 2.87255 20.4256 3.29077 20.9978 3.863C21.5701 4.43524 21.9883 5.14291 22.2136 5.92019C22.4389 6.69747 22.4639 7.5191 22.2864 8.30865C22.9651 8.74257 23.5235 9.34034 23.9104 10.0469C24.2972 10.7534 24.5 11.5459 24.5 12.3514C24.5 13.1569 24.2972 13.9494 23.9104 14.656C23.5235 15.3625 22.9651 15.9603 22.2864 16.3942C22.4632 17.1825 22.438 18.0028 22.2133 18.7788C21.9885 19.5548 21.5714 20.2616 21.0008 20.8334C20.4301 21.4053 19.7242 21.8239 18.9486 22.0502C18.1731 22.2766 17.3529 22.3035 16.5642 22.1284C16.1308 22.8096 15.5326 23.3705 14.8249 23.7591C14.1171 24.1477 13.3228 24.3514 12.5154 24.3514C11.708 24.3514 10.9137 24.1477 10.206 23.7591C9.49826 23.3705 8.90003 22.8096 8.46667 22.1284C7.67832 22.3052 6.85809 22.28 6.08205 22.0552C5.30602 21.8305 4.59929 21.4134 4.0274 20.8427C3.45551 20.272 3.03698 19.5662 2.8106 18.7906C2.58422 18.0151 2.55734 17.1949 2.73244 16.4062C2.04859 15.9734 1.48532 15.3747 1.095 14.6658C0.704679 13.9568 0.5 13.1607 0.5 12.3514C0.5 11.5421 0.704679 10.746 1.095 10.0371C1.48532 9.32813 2.04859 8.72943 2.73244 8.29666Z" fill="#FFE5E5"/>
<path d="M12.5 8.35596V12.356" stroke="#D94141" stroke-width="2" stroke-linecap="round" stroke-linejoin="round"/>
<path d="M12.5 16.356H12.51" stroke="#D94141" stroke-width="2" stroke-linecap="round" stroke-linejoin="round"/>
</g>
</g>
<defs>
<clipPath id="clip0_1700_58926">
<rect width="24" height="24" fill="white" transform="translate(0.5 0.355957)"/>
</clipPath>
<clipPath id="clip1_1700_58926">
<rect width="24" height="24" fill="white" transform="translate(0.5 0.355957)"/>
</clipPath>
</defs>
</svg>
