<svg width="24" height="24" viewBox="0 0 24 24" fill="none" xmlns="http://www.w3.org/2000/svg">
<path d="M14.0992 14.7408C14.2231 14.7977 14.3627 14.8107 14.495 14.7777C14.6273 14.7446 14.7444 14.6675 14.827 14.559L15.04 14.28C15.1518 14.131 15.2967 14.01 15.4633 13.9267C15.63 13.8434 15.8137 13.8 16 13.8H17.8C18.1183 13.8 18.4235 13.9264 18.6485 14.1515C18.8736 14.3765 19 14.6817 19 15V16.8C19 17.1183 18.8736 17.4235 18.6485 17.6485C18.4235 17.8736 18.1183 18 17.8 18C14.9357 18 12.1886 16.8621 10.1632 14.8368C8.13785 12.8114 7 10.0643 7 7.2C7 6.88174 7.12643 6.57652 7.35147 6.35147C7.57652 6.12643 7.88174 6 8.2 6H10C10.3183 6 10.6235 6.12643 10.8485 6.35147C11.0736 6.57652 11.2 6.88174 11.2 7.2V9C11.2 9.18629 11.1566 9.37003 11.0733 9.53666C10.99 9.70328 10.869 9.84822 10.72 9.96L10.4392 10.1706C10.329 10.2547 10.2514 10.3744 10.2195 10.5092C10.1875 10.6441 10.2033 10.7858 10.264 10.9104C11.084 12.5759 12.4327 13.9229 14.0992 14.7408Z" stroke="currentColor" stroke-linecap="round" stroke-linejoin="round"/>
</svg>
