<svg width="24" height="24" viewBox="0 0 24 24" fill="none" xmlns="http://www.w3.org/2000/svg">
<path d="M10.3908 12H17.4563C17.6005 12 17.7387 12.0632 17.8406 12.1757C17.9426 12.2883 17.9998 12.4409 17.9998 12.6C17.9998 13.3957 17.7135 14.1587 17.2039 14.7213C16.6942 15.2839 16.003 15.6 15.2823 15.6H14.9573C14.9088 15.6 14.8612 15.6144 14.8194 15.6415C14.7776 15.6687 14.7431 15.7078 14.7196 15.7546C14.6961 15.8014 14.6844 15.8544 14.6856 15.9079C14.6869 15.9614 14.7011 16.0136 14.7268 16.059L15.566 17.541C15.5917 17.5864 15.606 17.6386 15.6072 17.6922C15.6085 17.7457 15.5968 17.7986 15.5733 17.8455C15.5497 17.8923 15.5153 17.9313 15.4735 17.9585C15.4317 17.9857 15.3841 18 15.3356 18H9.52224C9.47373 18 9.42611 17.9857 9.38431 17.9585C9.34251 17.9313 9.30807 17.8923 9.28455 17.8455C9.26104 17.7986 9.24931 17.7457 9.25058 17.6922C9.25186 17.6386 9.26609 17.5864 9.2918 17.541L10.3908 15.6" stroke="currentColor" stroke-width="0.9" stroke-linecap="round" stroke-linejoin="round"/>
<path d="M10.8644 15.3334C10.1047 15.3334 9.37613 15.0261 8.83895 14.4791C8.30178 13.9321 8 13.1903 8 12.4167V7.16667C8 6.85725 8.12071 6.5605 8.33558 6.34171C8.55045 6.12292 8.84188 6 9.14575 6H13.7287C14.0326 6 14.324 6.12292 14.5389 6.34171C14.7538 6.5605 14.8745 6.85725 14.8745 7.16667V11.8334" stroke="currentColor" stroke-width="0.9" stroke-linecap="round" stroke-linejoin="round"/>
</svg>
