<svg width="24" height="24" viewBox="0 0 24 24" fill="none" xmlns="http://www.w3.org/2000/svg">
<path d="M11.3336 15.857C11.3336 16.2121 11.6407 16.4999 12.0195 16.4999C12.3983 16.4999 12.7054 16.2121 12.7054 15.857C12.7054 15.502 12.3983 15.2142 12.0195 15.2142C11.6407 15.2142 11.3336 15.502 11.3336 15.857Z" fill="currentColor"/>
<path d="M9.5111 13.6648C9.83061 13.3437 10.2169 13.0873 10.6462 12.9115C11.0756 12.7357 11.5391 12.6443 12.0076 12.6428C12.4761 12.6413 12.9399 12.7298 13.3705 12.9027C13.8011 13.0757 14.1894 13.3295 14.5113 13.6485M8.00673 11.7067C8.51794 11.1929 9.13606 10.7827 9.82295 10.5015C10.5098 10.2202 11.2508 10.0739 12.0004 10.0714C12.75 10.069 13.4918 10.2106 14.1808 10.4873C14.8697 10.7641 15.4913 11.1703 16.0063 11.6807M6 9.95332C6.76682 9.1826 7.694 8.5673 8.72434 8.1454C9.75468 7.7235 10.8658 7.50373 11.9902 7.50005C13.1146 7.49637 14.2286 7.70875 15.2621 8.12389C16.2955 8.53904 17.2275 9.14863 18 9.91432M12.0195 16.4999C11.6407 16.4999 11.3336 16.2121 11.3336 15.857C11.3336 15.502 11.6407 15.2142 12.0195 15.2142C12.3983 15.2142 12.7054 15.502 12.7054 15.857C12.7054 16.2121 12.3983 16.4999 12.0195 16.4999Z" stroke="currentColor" stroke-width="1.35" stroke-linecap="round" stroke-linejoin="round"/>
</svg>
