<svg width="14" height="14" viewBox="0 0 14 14" fill="none" xmlns="http://www.w3.org/2000/svg">
<path d="M10.9374 4.89175L11.77 4.05912L9.93939 2.22852L9.10676 3.06115C8.75154 3.41637 8.31845 3.68413 7.84224 3.84287L5.31798 4.68449C4.74592 4.87498 4.22657 5.19606 3.80007 5.62256L1.47409 7.94855C0.842132 8.58051 0.842132 9.60484 1.47409 10.2368L3.76234 12.5251C4.3943 13.157 5.41862 13.157 6.05058 12.5251L8.37716 10.1985C8.80366 9.77196 9.12473 9.25261 9.31522 8.68055L10.1568 6.15628C10.3144 5.68006 10.5821 5.24697 10.9374 4.89175Z" stroke="#B3B5BD"/>
<path d="M7.40221 10.4657L6.27871 11.5892L2.40908 7.71929L3.53258 6.59579L7.40221 10.4657Z" stroke="#B3B5BD"/>
<path d="M11.7878 4.07779L9.92282 2.21284C9.806 2.09602 9.806 1.90611 9.92282 1.78929L10.4488 1.2633C10.7999 0.912234 11.369 0.912234 11.7195 1.2633L12.7367 2.28054C13.0878 2.6316 13.0878 3.20073 12.7367 3.55119L12.2107 4.07719C12.0939 4.19461 11.9046 4.19461 11.7878 4.07779Z" stroke="#B3B5BD"/>
</svg>
