<svg width="43" height="42" viewBox="0 0 43 42" fill="none" xmlns="http://www.w3.org/2000/svg">
<path d="M21.5 3.5C24.8952 3.49938 28.2174 4.48644 31.0614 6.34087C33.9055 8.19531 36.1487 10.837 37.5177 13.9441C38.8866 17.0511 39.3222 20.4893 38.7713 23.8395C38.2204 27.1898 36.7068 30.3074 34.415 32.8125" stroke="black" stroke-width="2" stroke-linecap="round" stroke-linejoin="round"/>
<path d="M21.5 14V28" stroke="black" stroke-width="2" stroke-linecap="round" stroke-linejoin="round"/>
<path d="M28.5 21H14.5" stroke="black" stroke-width="2" stroke-linecap="round" stroke-linejoin="round"/>
<path d="M4.875 15.5312C4.31736 17.2264 4.02228 18.9969 4 20.7812" stroke="black" stroke-width="2" stroke-linecap="round" stroke-linejoin="round"/>
<path d="M5.45251 28C6.43514 30.2607 7.88428 32.2883 9.70502 33.95" stroke="black" stroke-width="2" stroke-linecap="round" stroke-linejoin="round"/>
<path d="M8.61304 9.16088C9.10136 8.62929 9.6221 8.12841 10.1723 7.66113" stroke="black" stroke-width="2" stroke-linecap="round" stroke-linejoin="round"/>
<path d="M15.627 37.4853C19.9909 39.04 24.7933 38.8008 28.9812 36.8203" stroke="black" stroke-width="2" stroke-linecap="round" stroke-linejoin="round"/>
</svg>
