<svg width="12" height="24" viewBox="0 0 12 24" fill="none" xmlns="http://www.w3.org/2000/svg">
<path d="M2 3C2.55228 3 3 2.55228 3 2C3 1.44772 2.55228 1 2 1C1.44772 1 1 1.44772 1 2C1 2.55228 1.44772 3 2 3Z" stroke="#404251" stroke-width="2" stroke-linecap="round" stroke-linejoin="round"/>
<path d="M10 3C10.5523 3 11 2.55228 11 2C11 1.44772 10.5523 1 10 1C9.44772 1 9 1.44772 9 2C9 2.55228 9.44772 3 10 3Z" stroke="#404251" stroke-width="2" stroke-linecap="round" stroke-linejoin="round"/>
<path d="M2 12.666C2.55228 12.666 3 12.2183 3 11.666C3 11.1137 2.55228 10.666 2 10.666C1.44772 10.666 1 11.1137 1 11.666C1 12.2183 1.44772 12.666 2 12.666Z" stroke="#404251" stroke-width="2" stroke-linecap="round" stroke-linejoin="round"/>
<path d="M10 12.666C10.5523 12.666 11 12.2183 11 11.666C11 11.1137 10.5523 10.666 10 10.666C9.44772 10.666 9 11.1137 9 11.666C9 12.2183 9.44772 12.666 10 12.666Z" stroke="#404251" stroke-width="2" stroke-linecap="round" stroke-linejoin="round"/>
<path d="M2 22.334C2.55228 22.334 3 21.8863 3 21.334C3 20.7817 2.55228 20.334 2 20.334C1.44772 20.334 1 20.7817 1 21.334C1 21.8863 1.44772 22.334 2 22.334Z" stroke="#404251" stroke-width="2" stroke-linecap="round" stroke-linejoin="round"/>
<path d="M10 22.334C10.5523 22.334 11 21.8863 11 21.334C11 20.7817 10.5523 20.334 10 20.334C9.44772 20.334 9 20.7817 9 21.334C9 21.8863 9.44772 22.334 10 22.334Z" stroke="#404251" stroke-width="2" stroke-linecap="round" stroke-linejoin="round"/>
</svg>
