<svg width="24" height="24" viewBox="0 0 24 24" fill="none" xmlns="http://www.w3.org/2000/svg">
<mask id="mask0_1031_8594" style="mask-type:alpha" maskUnits="userSpaceOnUse" x="0" y="0" width="24" height="24">
<rect width="24" height="24" fill="#D9D9D9"/>
</mask>
<g mask="url(#mask0_1031_8594)">
<path d="M14.6667 20C14.1778 20 13.7593 19.8259 13.4111 19.4778C13.063 19.1296 12.8889 18.7111 12.8889 18.2222V14.6667C12.8889 14.1778 13.063 13.7593 13.4111 13.4111C13.7593 13.063 14.1778 12.8889 14.6667 12.8889H18.2222C18.7111 12.8889 19.1296 13.063 19.4778 13.4111C19.8259 13.7593 20 14.1778 20 14.6667V18.2222C20 18.7111 19.8259 19.1296 19.4778 19.4778C19.1296 19.8259 18.7111 20 18.2222 20H14.6667ZM14.6667 11.1111C14.1778 11.1111 13.7593 10.937 13.4111 10.5889C13.063 10.2407 12.8889 9.82222 12.8889 9.33333V5.77778C12.8889 5.28889 13.063 4.87037 13.4111 4.52222C13.7593 4.17407 14.1778 4 14.6667 4H18.2222C18.7111 4 19.1296 4.17407 19.4778 4.52222C19.8259 4.87037 20 5.28889 20 5.77778V9.33333C20 9.82222 19.8259 10.2407 19.4778 10.5889C19.1296 10.937 18.7111 11.1111 18.2222 11.1111H14.6667ZM5.77778 11.1111C5.28889 11.1111 4.87037 10.937 4.52222 10.5889C4.17407 10.2407 4 9.82222 4 9.33333V5.77778C4 5.28889 4.17407 4.87037 4.52222 4.52222C4.87037 4.17407 5.28889 4 5.77778 4H9.33333C9.82222 4 10.2407 4.17407 10.5889 4.52222C10.937 4.87037 11.1111 5.28889 11.1111 5.77778V9.33333C11.1111 9.82222 10.937 10.2407 10.5889 10.5889C10.2407 10.937 9.82222 11.1111 9.33333 11.1111H5.77778ZM5.77778 20C5.28889 20 4.87037 19.8259 4.52222 19.4778C4.17407 19.1296 4 18.7111 4 18.2222V14.6667C4 14.1778 4.17407 13.7593 4.52222 13.4111C4.87037 13.063 5.28889 12.8889 5.77778 12.8889H9.33333C9.82222 12.8889 10.2407 13.063 10.5889 13.4111C10.937 13.7593 11.1111 14.1778 11.1111 14.6667V18.2222C11.1111 18.7111 10.937 19.1296 10.5889 19.4778C10.2407 19.8259 9.82222 20 9.33333 20H5.77778Z" fill="#93969F"/>
</g>
</svg>
