<svg width="14" height="14" viewBox="0 0 14 14" fill="none" xmlns="http://www.w3.org/2000/svg">
<path d="M8.0992 9.7408C8.22312 9.79771 8.36272 9.81071 8.49502 9.77766C8.62731 9.74462 8.7444 9.66749 8.827 9.559L9.04 9.28C9.15178 9.13097 9.29672 9.01 9.46334 8.92669C9.62997 8.84337 9.81371 8.8 10 8.8H11.8C12.1183 8.8 12.4235 8.92643 12.6485 9.15147C12.8736 9.37652 13 9.68174 13 10V11.8C13 12.1183 12.8736 12.4235 12.6485 12.6485C12.4235 12.8736 12.1183 13 11.8 13C8.93566 13 6.18864 11.8621 4.16325 9.83675C2.13785 7.81136 1 5.06434 1 2.2C1 1.88174 1.12643 1.57652 1.35147 1.35147C1.57652 1.12643 1.88174 1 2.2 1H4C4.31826 1 4.62348 1.12643 4.84853 1.35147C5.07357 1.57652 5.2 1.88174 5.2 2.2V4C5.2 4.18629 5.15663 4.37003 5.07331 4.53666C4.99 4.70328 4.86904 4.84822 4.72 4.96L4.4392 5.1706C4.32905 5.25471 4.25141 5.37435 4.21947 5.50921C4.18754 5.64407 4.20327 5.78583 4.264 5.9104C5.08401 7.57592 6.43265 8.92288 8.0992 9.7408Z" stroke="#B3B5BD" stroke-linecap="round" stroke-linejoin="round"/>
</svg>
