<svg width="54" height="54" viewBox="0 0 54 54" fill="none" xmlns="http://www.w3.org/2000/svg">
<path d="M44.0833 6.75H11.4167C8.83934 6.75 6.75 8.83934 6.75 11.4167V44.0833C6.75 46.6607 8.83934 48.75 11.4167 48.75H44.0833C46.6607 48.75 48.75 46.6607 48.75 44.0833V11.4167C48.75 8.83934 46.6607 6.75 44.0833 6.75Z" stroke="#404251" stroke-width="2" stroke-linecap="round" stroke-linejoin="round"/>
<path d="M20.75 25.4163C23.3274 25.4163 25.4167 23.327 25.4167 20.7497C25.4167 18.1723 23.3274 16.083 20.75 16.083C18.1727 16.083 16.0834 18.1723 16.0834 20.7497C16.0834 23.327 18.1727 25.4163 20.75 25.4163Z" stroke="#404251" stroke-width="2" stroke-linecap="round" stroke-linejoin="round"/>
<path d="M48.75 34.7506L41.5493 27.5499C40.6742 26.6751 39.4874 26.1836 38.25 26.1836C37.0126 26.1836 35.8258 26.6751 34.9507 27.5499L13.75 48.7506" stroke="#404251" stroke-width="2" stroke-linecap="round" stroke-linejoin="round"/>
</svg>
