<svg width="24" height="24" viewBox="0 0 24 24" fill="none" xmlns="http://www.w3.org/2000/svg">
<path d="M4 8L7.528 4.472C7.67685 4.32227 7.85386 4.20347 8.04883 4.12246C8.2438 4.04145 8.45287 3.99983 8.664 4H15.336C15.5471 3.99983 15.7562 4.04145 15.9512 4.12246C16.1461 4.20347 16.3232 4.32227 16.472 4.472L20 8" stroke="#D2D4DA" stroke-linecap="round" stroke-linejoin="round"/>
<path d="M5.59998 12V18.4C5.59998 18.8243 5.76855 19.2313 6.0686 19.5314C6.36866 19.8314 6.77563 20 7.19998 20H16.8C17.2243 20 17.6313 19.8314 17.9313 19.5314C18.2314 19.2313 18.4 18.8243 18.4 18.4V12" stroke="#D2D4DA" stroke-linecap="round" stroke-linejoin="round"/>
<path d="M14.4 20.0002V16.8002C14.4 16.3758 14.2314 15.9689 13.9313 15.6688C13.6313 15.3688 13.2243 15.2002 12.8 15.2002H11.2C10.7756 15.2002 10.3687 15.3688 10.0686 15.6688C9.76855 15.9689 9.59998 16.3758 9.59998 16.8002V20.0002" stroke="#D2D4DA" stroke-linecap="round" stroke-linejoin="round"/>
<path d="M4 8H20" stroke="#D2D4DA" stroke-linecap="round" stroke-linejoin="round"/>
<path d="M20 8V10.4C20 10.8243 19.8314 11.2313 19.5314 11.5314C19.2313 11.8314 18.8243 12 18.4 12C17.9326 11.9743 17.4862 11.7974 17.128 11.496C17.0325 11.427 16.9178 11.3899 16.8 11.3899C16.6822 11.3899 16.5675 11.427 16.472 11.496C16.1138 11.7974 15.6674 11.9743 15.2 12C14.7326 11.9743 14.2862 11.7974 13.928 11.496C13.8325 11.427 13.7178 11.3899 13.6 11.3899C13.4822 11.3899 13.3675 11.427 13.272 11.496C12.9138 11.7974 12.4674 11.9743 12 12C11.5326 11.9743 11.0862 11.7974 10.728 11.496C10.6325 11.427 10.5178 11.3899 10.4 11.3899C10.2822 11.3899 10.1675 11.427 10.072 11.496C9.71382 11.7974 9.26741 11.9743 8.8 12C8.33259 11.9743 7.88618 11.7974 7.528 11.496C7.43254 11.427 7.31777 11.3899 7.2 11.3899C7.08223 11.3899 6.96746 11.427 6.872 11.496C6.51382 11.7974 6.06741 11.9743 5.6 12C5.17565 12 4.76869 11.8314 4.46863 11.5314C4.16857 11.2313 4 10.8243 4 10.4V8" stroke="#D2D4DA" stroke-linecap="round" stroke-linejoin="round"/>
</svg>
