<svg width="12" height="14" viewBox="0 0 12 14" fill="none" xmlns="http://www.w3.org/2000/svg">
<path d="M3.39027 7H10.4558C10.6 7 10.7382 7.06321 10.8401 7.17574C10.9421 7.28826 10.9993 7.44087 10.9993 7.6C10.9993 8.39566 10.713 9.15872 10.2034 9.72134C9.69376 10.2839 9.00254 10.6 8.28181 10.6H7.9568C7.90829 10.6 7.86066 10.6144 7.81887 10.6415C7.77707 10.6687 7.74263 10.7078 7.71911 10.7546C7.69559 10.8014 7.68386 10.8544 7.68514 10.9079C7.68641 10.9614 7.70064 11.0136 7.72635 11.059L8.56552 12.541C8.59123 12.5864 8.60546 12.6386 8.60674 12.6922C8.60801 12.7457 8.59628 12.7986 8.57276 12.8455C8.54925 12.8923 8.5148 12.9313 8.47301 12.9585C8.43121 12.9857 8.38359 13 8.33508 13H2.52175C2.47324 13 2.42562 12.9857 2.38382 12.9585C2.34203 12.9313 2.30758 12.8923 2.28407 12.8455C2.26055 12.7986 2.24882 12.7457 2.25009 12.6922C2.25137 12.6386 2.2656 12.5864 2.29131 12.541L3.39027 10.6" stroke="#B3B5BD" stroke-width="0.9" stroke-linecap="round" stroke-linejoin="round"/>
<path d="M3.86437 10.3334C3.10469 10.3334 2.37613 10.0261 1.83895 9.47911C1.30178 8.93212 1 8.19025 1 7.4167V2.16667C1 1.85725 1.12071 1.5605 1.33558 1.34171C1.55045 1.12292 1.84188 1 2.14575 1H6.72873C7.0326 1 7.32403 1.12292 7.5389 1.34171C7.75377 1.5605 7.87448 1.85725 7.87448 2.16667V6.83337" stroke="#B3B5BD" stroke-width="0.9" stroke-linecap="round" stroke-linejoin="round"/>
</svg>
