<svg width="14" height="12" viewBox="0 0 14 12" fill="none" xmlns="http://www.w3.org/2000/svg">
<path d="M6.33363 9.85703C6.33363 10.2121 6.64071 10.4999 7.01951 10.4999C7.39831 10.4999 7.70539 10.2121 7.70539 9.85703C7.70539 9.502 7.39831 9.21418 7.01951 9.21418C6.64071 9.21418 6.33363 9.502 6.33363 9.85703Z" fill="#B3B5BD"/>
<path d="M4.5111 7.66479C4.83061 7.34366 5.21694 7.08729 5.64624 6.91149C6.07555 6.7357 6.53908 6.64434 7.00757 6.6428C7.47606 6.64127 7.93986 6.72976 8.37046 6.90274C8.80107 7.07572 9.18943 7.3295 9.51133 7.64854M3.00673 5.70673C3.51794 5.19292 4.13606 4.78272 4.82295 4.50145C5.50985 4.22019 6.25082 4.07388 7.0004 4.07143C7.74998 4.06897 8.49179 4.21056 9.18076 4.48732C9.86973 4.76409 10.4913 5.17027 11.0063 5.68073M1 3.95332C1.76682 3.1826 2.694 2.5673 3.72434 2.1454C4.75468 1.7235 5.86581 1.50373 6.99018 1.50005C8.11455 1.49637 9.2286 1.70875 10.2621 2.12389C11.2955 2.53904 12.2275 3.14863 13 3.91432M7.01951 10.4999C6.64071 10.4999 6.33363 10.2121 6.33363 9.85703C6.33363 9.50199 6.64071 9.21418 7.01951 9.21418C7.39831 9.21418 7.70539 9.50199 7.70539 9.85703C7.70539 10.2121 7.39831 10.4999 7.01951 10.4999Z" stroke="#B3B5BD" stroke-width="1.35" stroke-linecap="round" stroke-linejoin="round"/>
</svg>
