<svg width="14" height="16" viewBox="0 0 14 16" fill="none" xmlns="http://www.w3.org/2000/svg">
<path d="M10.6 7.46154C11.9255 7.46154 13 6.01507 13 4.23077C13 2.44646 11.9255 1 10.6 1C9.27447 1 8.19995 2.44646 8.19995 4.23077C8.19995 6.01507 9.27447 7.46154 10.6 7.46154Z" stroke="#D2D4DA" stroke-linecap="round" stroke-linejoin="round"/>
<path d="M10.6 7.46143V14.9999" stroke="#D2D4DA" stroke-linecap="round" stroke-linejoin="round"/>
<path d="M3.49994 1V15" stroke="#D2D4DA" stroke-linecap="round" stroke-linejoin="round"/>
<path d="M6.00002 1V3.69231C6.00002 4.04587 5.93536 4.39596 5.80972 4.72261C5.68408 5.04926 5.49993 5.34605 5.26779 5.59606C5.03564 5.84606 4.76004 6.04438 4.45672 6.17968C4.15341 6.31498 3.82832 6.38462 3.50001 6.38462V6.38462C2.83697 6.38462 2.20108 6.10096 1.73224 5.59606C1.26339 5.09115 1 4.40635 1 3.69231V1" stroke="#D2D4DA" stroke-linecap="round" stroke-linejoin="round"/>
</svg>
