<svg width="151" height="65" viewBox="0 0 151 65" fill="none" xmlns="http://www.w3.org/2000/svg">
<path d="M10.9398 48.0817C7.97889 48.0817 5.57031 45.6723 5.57031 42.7103V21.0711C5.57031 18.8918 6.88966 16.9274 8.89936 16.0987L15.7722 13.2902C20.528 11.3411 25.8975 11.8936 30.147 14.7481C34.4119 17.6027 36.9432 22.3756 36.9432 27.5168V35.4512C36.9432 38.4131 34.5346 40.8226 31.5737 40.8226C28.6129 40.8226 26.2043 38.4131 26.2043 35.4512V27.5168C26.2043 25.9514 25.4526 24.5548 24.1639 23.6801C22.8752 22.8053 21.2798 22.6518 19.8377 23.235L16.3092 24.6776V42.7103C16.3092 45.6723 13.9006 48.0817 10.9398 48.0817Z" fill="#FFCD2A"/>
<path d="M46.3323 37.4156C43.3715 37.4156 40.9629 35.0062 40.9629 32.0442V7.02866C40.9629 4.0667 43.3715 1.65723 46.3323 1.65723C49.2932 1.65723 51.7018 4.0667 51.7018 7.02866V32.0595C51.7018 35.0215 49.2932 37.431 46.3323 37.431V37.4156Z" fill="#FFCD2A"/>
<path d="M46.3625 64.8561C43.4017 64.8561 40.9931 62.4467 40.9931 59.4847V53.1771L12.3357 60.8659C9.46684 61.6333 6.52131 59.9298 5.75425 57.0752C4.98719 54.2054 6.69007 51.2588 9.54354 50.4914L44.9665 40.9916C46.5773 40.5619 48.2956 40.8996 49.6302 41.9125C50.9496 42.9254 51.732 44.5061 51.732 46.1789V59.4847C51.732 62.4467 49.3234 64.8561 46.3625 64.8561Z" fill="#FFCD2A"/>
<path d="M5.87709 62.4006C3.4992 62.4006 1.33608 60.8199 0.691752 58.4258C-0.075311 55.5559 1.62756 52.6093 4.48104 51.8419L44.9666 40.9916C47.8354 40.2243 50.781 41.9278 51.548 44.7823C52.3151 47.6369 50.6122 50.5988 47.7587 51.3662L7.27315 62.2165C6.81291 62.3392 6.33733 62.4006 5.87709 62.4006Z" fill="#FFCD2A"/>
<path d="M61.2581 44.6132C60.0768 44.6132 58.9109 44.2141 57.9598 43.4775C56.6557 42.4646 55.8887 40.8992 55.8887 39.2417V25.7518C55.8887 17.6025 61.4115 10.5276 69.3123 8.54782L84.4388 4.75713C87.3229 4.03582 90.2377 5.78537 90.9588 8.65525C91.6798 11.5251 89.9309 14.4564 87.0621 15.1777L71.9356 18.9684C68.8214 19.7511 66.6429 22.5442 66.6429 25.7518V32.3509L84.4541 27.885C87.3383 27.1637 90.2531 28.9132 90.9741 31.7831C91.6952 34.653 89.9463 37.5843 87.0774 38.3056L62.5928 44.4443C62.1632 44.5518 61.7184 44.6132 61.2888 44.6132H61.2581Z" fill="#FFCD2A"/>
<path d="M73.3011 61.572C70.3402 61.572 67.9316 59.1626 67.9316 56.2006V36.4491C67.9316 33.4871 70.3402 31.0776 73.3011 31.0776C76.2619 31.0776 78.6705 33.4871 78.6705 36.4491V56.2006C78.6705 59.1626 76.2619 61.572 73.3011 61.572Z" fill="#FFCD2A"/>
<path d="M133.377 35.8658C130.416 35.8658 128.008 33.4564 128.008 30.4944V5.37143C128.008 2.40947 130.416 0 133.377 0C136.338 0 138.747 2.40947 138.747 5.37143V30.4944C138.747 33.4564 136.338 35.8658 133.377 35.8658Z" fill="#FFCD2A"/>
<path d="M102.572 42.5725C101.406 42.5725 100.24 42.1888 99.2886 41.4521C97.9693 40.4392 97.2022 38.8585 97.2022 37.201V24.0333C97.2022 21.5932 98.8437 19.4599 101.206 18.8461L113.909 15.5004V13.5974L103.937 16.2217C101.053 16.9737 98.138 15.2549 97.371 12.4003C96.6192 9.53047 98.3221 6.5992 101.191 5.83185L117.898 1.42728C119.508 1.01291 121.227 1.35054 122.546 2.36344C123.865 3.37634 124.632 4.95708 124.632 6.61455V19.6288C124.632 22.0689 122.991 24.2022 120.628 24.816L107.926 28.1617V30.2182L130.999 24.1254C133.852 23.3734 136.798 25.0769 137.565 27.9468C138.317 30.8167 136.614 33.748 133.745 34.5153L103.922 42.3883C103.477 42.5111 103.017 42.5725 102.556 42.5725H102.572Z" fill="#FFCD2A"/>
<path d="M129.881 64.8558C118.927 64.8558 110.029 55.9392 110.029 44.9969C110.029 34.0545 118.943 25.1226 129.881 25.1226C140.819 25.1226 149.748 34.0391 149.748 44.9969C149.748 55.9546 140.835 64.8558 129.881 64.8558ZM129.881 35.8654C124.849 35.8654 120.768 39.9631 120.768 44.9969C120.768 50.0307 124.864 54.113 129.881 54.113C134.897 54.113 139.009 50.0153 139.009 44.9969C139.009 39.9784 134.913 35.8654 129.881 35.8654Z" fill="#FFCD2A"/>
<path d="M61.2595 44.5063C58.8509 44.5063 56.6725 42.8795 56.0588 40.4394C55.3378 37.5541 57.0867 34.6382 59.9555 33.9169L84.4401 27.7781C87.3243 27.0568 90.2391 28.8064 90.9602 31.6762C91.6812 34.5461 89.9323 37.4774 87.0635 38.1987L62.5789 44.3375C62.134 44.4449 61.7044 44.5063 61.2749 44.5063H61.2595Z" fill="#FFCD2A"/>
<path d="M61.2595 64.6414C58.8509 64.6414 56.6725 63.0146 56.0588 60.5744C55.3378 57.6892 57.0867 54.7733 59.9555 54.052L94.0131 45.5037C96.8819 44.7824 99.8121 46.532 100.533 49.4018C101.254 52.2871 99.5053 55.203 96.6365 55.9243L62.5789 64.4725C62.134 64.58 61.7044 64.6414 61.2749 64.6414H61.2595Z" fill="#FFCD2A"/>
<path d="M133.363 19.4445C130.954 19.4445 128.776 17.8177 128.162 15.3776C127.441 12.4923 129.19 9.57642 132.059 8.85511L143.81 5.90849C146.679 5.18719 149.609 6.93674 150.33 9.80662C151.051 12.6918 149.303 15.6078 146.434 16.3291L134.682 19.2757C134.237 19.3831 133.808 19.4445 133.378 19.4445H133.363Z" fill="#FFCD2A"/>
<path d="M5.87709 62.4006C3.4992 62.4006 1.33608 60.8199 0.691752 58.4258C-0.075311 55.5559 1.62756 52.6093 4.48104 51.8419L44.9666 40.9916C47.8354 40.2243 50.781 41.9278 51.548 44.7823C52.3151 47.6369 50.6122 50.5988 47.7587 51.3662L7.27315 62.2165C6.81291 62.3392 6.33733 62.4006 5.87709 62.4006Z" fill="#FFCD2A"/>
<path d="M137.552 27.9311C137.399 27.3786 137.153 26.8721 136.862 26.4117C135.634 24.5087 133.302 23.4958 131.001 24.1097L124.266 25.9053H124.312C117.409 27.9004 112.055 33.5634 110.475 40.6384L133.732 34.4842C136.601 33.7322 138.304 30.7856 137.552 27.9157V27.9311Z" fill="#FFCD2A"/>
</svg>
