<svg width="20" height="20" viewBox="0 0 20 20" fill="none" xmlns="http://www.w3.org/2000/svg">
<mask id="mask0_463_267" style="mask-type:alpha" maskUnits="userSpaceOnUse" x="0" y="0" width="20" height="20">
<rect width="20" height="20" fill="#D9D9D9"/>
</mask>
<g mask="url(#mask0_463_267)">
<path d="M13.125 10.75H4.74958C4.53722 10.75 4.35917 10.6785 4.21542 10.5356C4.07181 10.3927 4 10.2156 4 10.0043C4 9.79308 4.07181 9.61454 4.21542 9.46871C4.35917 9.32288 4.53722 9.24996 4.74958 9.24996H13.125L9.45396 5.57892C9.3041 5.42906 9.22917 5.25343 9.22917 5.05204C9.22917 4.85065 9.30556 4.67024 9.45833 4.51079C9.61111 4.36468 9.78819 4.29163 9.98958 4.29163C10.191 4.29163 10.3667 4.36677 10.5169 4.51704L15.4708 9.47725C15.5458 9.55239 15.6007 9.63378 15.6354 9.72142C15.6701 9.80906 15.6875 9.90302 15.6875 10.0033C15.6875 10.1034 15.6701 10.1974 15.6354 10.2852C15.6007 10.3728 15.5486 10.4513 15.4792 10.5208L10.5208 15.4791C10.3681 15.6319 10.1944 15.7048 10 15.6979C9.80556 15.6909 9.63194 15.6144 9.47917 15.4683C9.32639 15.3088 9.25 15.1273 9.25 14.9235C9.25 14.7199 9.32639 14.544 9.47917 14.3958L13.125 10.75Z" fill="white"/>
</g>
</svg>
