<svg width="12" height="10" viewBox="0 0 12 10" fill="none" xmlns="http://www.w3.org/2000/svg">
<path d="M4.10417 7.31246L10.3333 1.08329C10.4849 0.930515 10.6616 0.854126 10.8635 0.854126C11.0656 0.854126 11.2431 0.930515 11.3958 1.08329C11.5486 1.23607 11.625 1.41371 11.625 1.61621C11.625 1.81871 11.5513 1.99364 11.404 2.141L4.64583 8.91663C4.49431 9.0694 4.31757 9.14579 4.11562 9.14579C3.91354 9.14579 3.73611 9.0694 3.58333 8.91663L0.604167 5.93746C0.451389 5.78468 0.375 5.6076 0.375 5.40621C0.375 5.20482 0.451389 5.02774 0.604167 4.87496C0.756944 4.72218 0.935208 4.64579 1.13896 4.64579C1.34257 4.64579 1.51847 4.72218 1.66667 4.87496L4.10417 7.31246Z" fill="#1056D1"/>
</svg>
