<svg width="20" height="20" viewBox="0 0 20 20" fill="none" xmlns="http://www.w3.org/2000/svg">
<mask id="mask0_577_210" style="mask-type:alpha" maskUnits="userSpaceOnUse" x="0" y="0" width="20" height="20">
<rect width="20" height="20" fill="#D9D9D9"/>
</mask>
<g mask="url(#mask0_577_210)">
<path d="M4.75604 12.5C4.54368 12.5 4.36458 12.4285 4.21875 12.2856C4.07292 12.1427 4 11.9656 4 11.7544C4 11.5431 4.07181 11.3646 4.21542 11.2188C4.35917 11.0729 4.53722 11 4.74958 11H15.244C15.4563 11 15.6354 11.0715 15.7812 11.2144C15.9271 11.3573 16 11.5344 16 11.7456C16 11.9569 15.9282 12.1354 15.7846 12.2812C15.6408 12.4271 15.4628 12.5 15.2504 12.5H4.75604ZM4.75604 9C4.54368 9 4.36458 8.92854 4.21875 8.78563C4.07292 8.64271 4 8.46563 4 8.25438C4 8.04313 4.07181 7.86458 4.21542 7.71875C4.35917 7.57292 4.53722 7.5 4.74958 7.5H15.244C15.4563 7.5 15.6354 7.57146 15.7812 7.71437C15.9271 7.85729 16 8.03437 16 8.24562C16 8.45687 15.9282 8.63542 15.7846 8.78125C15.6408 8.92708 15.4628 9 15.2504 9H4.75604Z" fill="#CDD9E4"/>
</g>
</svg>
