<svg width="14" height="14" viewBox="0 0 14 14" fill="none" xmlns="http://www.w3.org/2000/svg">
<path d="M7.00437 14C6.79313 14 6.61458 13.9281 6.46875 13.7844C6.32292 13.6406 6.25 13.4625 6.25 13.25V7.75H0.75C0.5375 7.75 0.359375 7.67854 0.215625 7.53562C0.0718751 7.39271 0 7.21562 0 7.00437C0 6.79313 0.0718751 6.61458 0.215625 6.46875C0.359375 6.32292 0.5375 6.25 0.75 6.25H6.25V0.75C6.25 0.5375 6.32146 0.359375 6.46438 0.215624C6.60729 0.0718745 6.78438 0 6.99563 0C7.20688 0 7.38542 0.0718745 7.53125 0.215624C7.67708 0.359375 7.75 0.5375 7.75 0.75V6.25H13.25C13.4625 6.25 13.6406 6.32146 13.7844 6.46438C13.9281 6.60729 14 6.78438 14 6.99563C14 7.20688 13.9281 7.38542 13.7844 7.53125C13.6406 7.67708 13.4625 7.75 13.25 7.75H7.75V13.25C7.75 13.4625 7.67854 13.6406 7.53562 13.7844C7.39271 13.9281 7.21562 14 7.00437 14Z" fill="#CDD9E4"/>
</svg>
