<svg width="10" height="12" viewBox="0 0 10 12" fill="none" xmlns="http://www.w3.org/2000/svg">
<path d="M2.40504 11.2666C2.10926 11.2666 1.85665 11.162 1.6472 10.9526C1.43787 10.7432 1.3332 10.4906 1.3332 10.1948V2.39997H0.533203V1.5333H3.39987V0.810303H6.59987V1.5333H9.46654V2.39997H8.66654V10.1876C8.66654 10.4959 8.56293 10.7527 8.3557 10.9583C8.14848 11.1639 7.89481 11.2666 7.5947 11.2666H2.40504ZM7.79987 2.39997H2.19987V10.1948C2.19987 10.2547 2.21909 10.3039 2.25754 10.3423C2.29598 10.3807 2.34515 10.4 2.40504 10.4H7.5947C7.64604 10.4 7.69304 10.3786 7.7357 10.3358C7.77848 10.2931 7.79987 10.2461 7.79987 10.1948V2.39997ZM3.6692 9.19997H4.5357V3.59997H3.6692V9.19997ZM5.46404 9.19997H6.33054V3.59997H5.46404V9.19997Z" fill="#FE5353"/>
</svg>
