<svg width="6" height="6" viewBox="0 0 6 6" fill="none" xmlns="http://www.w3.org/2000/svg">
<path d="M3.00011 3.85L1.05161 5.78334C0.928392 5.90556 0.789003 5.96667 0.633447 5.96667C0.477892 5.96667 0.339003 5.90556 0.216781 5.78334C0.0945584 5.66111 0.0334473 5.52223 0.0334473 5.36667C0.0334473 5.21111 0.0945584 5.07173 0.216781 4.9485L2.15011 3L0.216781 1.06817C0.0945584 0.944948 0.0334473 0.805559 0.0334473 0.650003C0.0334473 0.494447 0.0945584 0.355559 0.216781 0.233336C0.339003 0.111114 0.477892 0.0500031 0.633447 0.0500031C0.789003 0.0500031 0.928392 0.111114 1.05161 0.233336L3.00011 2.16667L4.93195 0.233336C5.05517 0.111114 5.19456 0.0500031 5.35011 0.0500031C5.50567 0.0500031 5.64456 0.111114 5.76678 0.233336C5.889 0.355559 5.95011 0.494447 5.95011 0.650003C5.95011 0.805559 5.889 0.944948 5.76678 1.06817L3.83345 3L5.76678 4.9485C5.889 5.07173 5.95011 5.21111 5.95011 5.36667C5.95011 5.52223 5.889 5.66111 5.76678 5.78334C5.64456 5.90556 5.50567 5.96667 5.35011 5.96667C5.19456 5.96667 5.05517 5.90556 4.93195 5.78334L3.00011 3.85Z" fill="#56687A"/>
</svg>
