<svg width="196" height="193" viewBox="0 0 196 193" fill="none" xmlns="http://www.w3.org/2000/svg">
<path fill-rule="evenodd" clip-rule="evenodd" d="M74.232 84.195L51.0634 90.0164L74.2752 84.195C74.3811 84.1689 74.4863 84.1413 74.5907 84.1123C74.4709 84.1376 74.3513 84.1652 74.232 84.195Z" fill="#FFCD2A"/>
<path fill-rule="evenodd" clip-rule="evenodd" d="M28.6709 192.41C28.2815 192.426 27.89 192.435 27.4966 192.435L27.4534 192.478C27.8649 192.478 28.2712 192.455 28.6709 192.41Z" fill="#FFCD2A"/>
<path fill-rule="evenodd" clip-rule="evenodd" d="M100.959 134.07C101.349 134.012 101.737 133.934 102.118 133.839L187.806 112.347C192.605 111.179 195.977 106.855 195.977 101.882V45.0593C195.977 41.7295 194.464 38.5727 191.827 36.5402C189.19 34.5078 185.774 33.7726 182.532 34.5942L126.242 48.735V32.3456C126.242 22.6157 121.832 13.6209 114.18 7.61004C106.527 1.59914 96.6702 -0.476572 87.2453 1.90184L85.9845 2.21824C85.6556 2.2699 85.3262 2.33724 84.9971 2.42077L24.8594 17.5129C20.0604 18.6805 16.6882 23.0049 16.6882 27.9779V84.7572V84.8004V139.638C6.87939 143.842 0 153.59 0 164.931C0 180.11 12.3216 192.435 27.4966 192.435C27.89 192.435 28.2815 192.426 28.6709 192.41C43.3021 191.794 54.993 179.716 54.993 164.931C54.993 153.573 48.0935 143.813 38.2617 139.62V93.233L51.0634 90.0164L74.232 84.195C74.3513 84.1652 74.4709 84.1376 74.5907 84.1123C77.42 83.5145 80.338 84.184 82.6193 85.968C84.9971 87.8275 86.3806 90.6384 86.3806 93.6654V123.936C86.3806 129.904 91.2227 134.747 97.1889 134.747C98.5148 134.747 99.7851 134.508 100.959 134.07ZM38.305 36.47L92.4765 22.8751C95.4164 22.14 98.4859 22.7887 100.864 24.6481C103.242 26.5076 104.625 29.3185 104.625 32.3456V62.6163C104.625 65.9461 106.138 69.1029 108.776 71.1353C111.413 73.1678 114.828 73.903 118.071 73.0813L174.361 58.9406V93.4492L107.997 110.109V93.6654C107.997 83.9355 103.631 74.9408 95.9352 68.9299C88.2829 62.919 78.4256 60.8433 69.0007 63.2217L40.752 70.3064L38.305 70.9191V36.47ZM27.4965 159.05C24.254 159.05 21.6167 161.688 21.6167 164.931C21.6167 168.175 24.254 170.812 27.4965 170.812C30.739 170.812 33.3762 168.175 33.3762 164.931C33.3762 161.688 30.739 159.05 27.4965 159.05Z" fill="#FFCD2A"/>
</svg>
